<svg width="32" height="32" viewBox="0 0 32 32" fill="none" xmlns="http://www.w3.org/2000/svg">
  <rect width="32" height="32" rx="8" fill="white"/>
  <path 
    d="M16 26.5C16.2 26.5 16.4 26.4 16.6 26.2C17.1 25.8 23.5 20.6 26.2 16.9C27.9 14.6 28.5 12.4 27.9 10.2C27.3 8.1 25.8 6.5 23.7 5.8C21.6 5.1 19.4 5.6 17.6 7.1L16 8.5L14.4 7.1C12.6 5.6 10.4 5.1 8.3 5.8C6.2 6.4 4.7 8.1 4.1 10.2C3.5 12.4 4.1 14.6 5.8 16.9C8.5 20.6 14.9 25.8 15.4 26.2C15.6 26.4 15.8 26.5 16 26.5Z" 
    fill="#FF4D8D"
  />
</svg>
