<?xml version="1.0" encoding="UTF-8"?>
<svg width="64" height="64" viewBox="0 0 64 64" fill="none" xmlns="http://www.w3.org/2000/svg">
  <path d="M44.6274 22.8571C48.3517 26.5814 48.3517 32.5614 44.6274 36.2857C40.9031 40.01 34.9231 40.01 31.1988 36.2857C27.4745 32.5614 27.4745 26.5814 31.1988 22.8571C34.9231 19.1329 40.9031 19.1329 44.6274 22.8571" stroke="#EC4899" stroke-width="2" stroke-linecap="round" stroke-linejoin="round"/>
  <path d="M44.6274 36.2857V45.7143C44.6274 47.0812 44.0846 48.3921 43.1201 49.3566C42.1557 50.321 40.8448 50.8639 39.4779 50.8639H19.1988C17.8319 50.8639 16.521 50.321 15.5565 49.3566C14.5921 48.3921 14.0493 47.0812 14.0493 45.7143V25.4353C14.0493 24.0684 14.5921 22.7575 15.5565 21.793C16.521 20.8286 17.8319 20.2857 19.1988 20.2857H28.6274" stroke="#EC4899" stroke-width="2" stroke-linecap="round" stroke-linejoin="round"/>
</svg>
